<svg version="1.1" id="Layer_1" xmlns="http://www.w3.org/2000/svg" xmlns:xlink="http://www.w3.org/1999/xlink" x="0px" y="0px" viewBox="0 0 500 500" style="width: 135px;" xml:space="preserve" data-imageid="data-collection-84" imageName="Recopilación de datos" class="illustrations_image">
<style type="text/css">
	.st0_data-collection-84{fill:#FFFFFF;}
	.st1_data-collection-84{fill:#D1D3D4;}
	.st2_data-collection-84{fill:#231F20;}
	.st3_data-collection-84{fill:#68E1FD;}
</style>
<g id="Screen_data-collection-84">
	<polygon class="st0_data-collection-84" points="374.8,389.9 126,389.9 155.2,357.5 345.6,357.5 &#9;"/>
	<path class="st1_data-collection-84" d="M374.8,390.6H126c-0.4,0-0.7-0.3-0.7-0.7c0-0.2,0.1-0.4,0.2-0.5l29.2-32.5c0.1-0.1,0.3-0.2,0.5-0.2h190.5&#10;&#9;&#9;c0.2,0,0.4,0.1,0.5,0.2l29.1,32.5c0.3,0.3,0.2,0.7,0,1C375.1,390.6,375,390.7,374.8,390.6L374.8,390.6z M127.6,389.2h245.6&#10;&#9;&#9;l-27.9-31.1H155.5L127.6,389.2z"/>
	<path class="st0_data-collection-84" d="M163,363.5l-15.9,17.7c-1.3,1.4,0.1,3.3,2.4,3.3h201.7c2.3,0,3.7-1.9,2.4-3.3l-15.9-17.7&#10;&#9;&#9;c-0.9-0.9-2.2-1.4-3.5-1.4H166.5C165.2,362,163.9,362.5,163,363.5z"/>
	<path class="st1_data-collection-84" d="M351.2,385.1H149.6c-1.4,0.1-2.7-0.7-3.4-1.9c-0.4-0.9-0.2-1.9,0.5-2.5l15.8-17.7c1.1-1.1,2.5-1.6,4-1.6h167.8&#10;&#9;&#9;c1.5,0,3,0.5,4,1.6l15.8,17.7c0.7,0.7,0.9,1.7,0.5,2.5C354,384.5,352.7,385.2,351.2,385.1z M163,363.5l0.5,0.5l-15.9,17.7&#10;&#9;&#9;c-0.3,0.3-0.4,0.7-0.2,1c0.4,0.7,1.3,1.1,2.1,1.1h201.7c0.9,0.1,1.7-0.3,2.1-1.1c0.1-0.3,0.1-0.7-0.2-1l-15.9-17.7&#10;&#9;&#9;c-0.8-0.8-1.9-1.2-3-1.2H166.5c-1.1,0-2.2,0.4-3,1.2L163,363.5z"/>
	<rect x="126" y="389.9" class="st0_data-collection-84" width="248.8" height="7"/>
	<path class="st1_data-collection-84" d="M374.8,397.6H126c-0.4,0-0.7-0.3-0.7-0.7l0,0v-7c0-0.4,0.3-0.7,0.7-0.7h0h248.8c0.4,0,0.7,0.3,0.7,0.7v0v7&#10;&#9;&#9;C375.5,397.3,375.2,397.6,374.8,397.6L374.8,397.6z M126.7,396.2h247.4v-5.6H126.7L126.7,396.2z"/>
</g>
<g id="Hand_magnet_data-collection-84">
	<path class="st0_data-collection-84" d="M228,330c-5.5-6.5-7.2-12.1-8-20.7c-0.3-1.8-0.1-3.7,0.3-5.4c0.9-2.7,3.4-4.6,6-6c4.8-2.5,10.2-3.6,15.7-3.1&#10;&#9;&#9;c5.9,0.5,10.4,3.8,15.5,6.5c4.4,2.3,10,4.9,11.1,10c0.8,3.5,0.1,21.7,0.1,25.3c0,11.9,0,34.8,0,34.8h-39.5l-0.4-34.8&#10;&#9;&#9;C228.9,336.5,229.4,331.6,228,330z"/>
	<path class="st2_data-collection-84" d="M268.8,372h-39.5c-0.4,0-0.7-0.3-0.7-0.7c0,0,0,0,0,0l-0.4-34.8c0.2-1.9,0.2-5.1-0.7-6.1l0,0&#10;&#9;&#9;c-5.9-7-7.5-13-8.2-21.1c-0.3-1.9-0.1-3.9,0.4-5.7c0.9-2.5,3-4.6,6.3-6.4c5-2.6,10.5-3.7,16.1-3.2c4.8,0.4,8.6,2.5,12.6,4.8&#10;&#9;&#9;c1,0.6,2.1,1.2,3.1,1.7l0.8,0.4c4.2,2.2,9.5,5,10.7,10.1c0.6,2.7,0.4,14.2,0.2,21c0,2-0.1,3.6-0.1,4.4c0,11.9,0,34.8,0,34.8&#10;&#9;&#9;C269.5,371.7,269.2,372,268.8,372L268.8,372z M230,370.6h38.1c0-3.9,0-23.5,0-34.1c0-0.8,0-2.4,0.1-4.4c0.1-6.3,0.4-18.1-0.2-20.7&#10;&#9;&#9;c-1-4.5-5.8-7-10-9.1l-0.8-0.4c-1.1-0.6-2.1-1.2-3.2-1.8c-3.9-2.2-7.6-4.3-12-4.6c-5.3-0.4-10.6,0.6-15.3,3.1&#10;&#9;&#9;c-3,1.6-4.9,3.5-5.6,5.6c-0.5,1.7-0.6,3.4-0.3,5.1c0.7,8,2.2,13.6,7.9,20.3l0,0c1.5,1.8,1,6.5,1,7.1L230,370.6z"/>
	<polygon class="st2_data-collection-84" points="274.7,375.8 224.2,375.8 225.9,346.3 273,346.3 &#9;"/>
	<path class="st2_data-collection-84" d="M274.7,376.5h-50.6c-0.4,0-0.7-0.3-0.7-0.7c0,0,0,0,0,0l1.7-29.5c0-0.4,0.3-0.7,0.7-0.7H273&#10;&#9;&#9;c0.4,0,0.7,0.3,0.7,0.7l1.7,29.5c0,0.2-0.1,0.4-0.2,0.5C275.1,376.4,274.9,376.5,274.7,376.5z M224.9,375.1H274l-1.6-28.1h-45.8&#10;&#9;&#9;L224.9,375.1z"/>
	<path class="st3_data-collection-84 targetColor" d="M302.6,221.2V271c0,28.8-23.4,52.2-52.2,52.3c-28.8,0-52.2-23.4-52.3-52.2c0,0,0,0,0,0v-49.8h17.9V271&#10;&#9;&#9;c0,18.9,15.3,34.3,34.3,34.3s34.3-15.3,34.3-34.3c0,0,0,0,0,0v-49.8H302.6z" style="fill: rgb(104, 225, 253);"/>
	<path class="st3_data-collection-84 targetColor" d="M250.4,323.9c-29.2,0-52.9-23.7-52.9-52.9v-49.8c0-0.4,0.3-0.7,0.7-0.7h17.9c0.4,0,0.7,0.3,0.7,0.7V271&#10;&#9;&#9;c0,18.5,15,33.6,33.6,33.6s33.6-15,33.6-33.6v-49.8c0-0.4,0.3-0.7,0.7-0.7l0,0h18c0.4,0,0.7,0.3,0.7,0.7c0,0,0,0,0,0V271&#10;&#9;&#9;C303.3,300.2,279.6,323.9,250.4,323.9z M198.9,221.9V271c0,28.5,23.1,51.6,51.6,51.6S302,299.5,302,271v-49.1h-16.6V271&#10;&#9;&#9;c0.8,19.3-14.2,35.6-33.5,36.4c-19.3,0.8-35.6-14.2-36.4-33.5c0-1,0-1.9,0-2.9v-49.1L198.9,221.9z" style="fill: rgb(104, 225, 253);"/>
	<polygon class="st2_data-collection-84" points="216.1,239.2 216.1,221.2 198.2,221.2 198.2,239.2 207.2,239.2 &#9;"/>
	<path class="st2_data-collection-84" d="M216.1,239.9h-18c-0.4,0-0.7-0.3-0.7-0.7v-18c0-0.4,0.3-0.7,0.7-0.7h17.9c0.4,0,0.7,0.3,0.7,0.7v18&#10;&#9;&#9;C216.8,239.6,216.5,239.9,216.1,239.9z M198.9,238.5h16.6v-16.6h-16.6L198.9,238.5z"/>
	<rect x="284.7" y="221.2" class="st2_data-collection-84" width="18" height="18"/>
	<path class="st2_data-collection-84" d="M302.6,239.9h-18c-0.4,0-0.7-0.3-0.7-0.7c0,0,0,0,0,0v-18c0-0.4,0.3-0.7,0.7-0.7l0,0h18c0.4,0,0.7,0.3,0.7,0.7&#10;&#9;&#9;c0,0,0,0,0,0v18C303.3,239.6,303,239.9,302.6,239.9L302.6,239.9z M285.4,238.5H302v-16.6h-16.6V238.5z"/>
	<path class="st0_data-collection-84" d="M242.2,289.9c-7.1,0.7-14.9,2.5-19,8.1c-2.1,2.8-3,6.9-0.9,9.7c2.3,3.2,7,3.5,11,3.2&#10;&#9;&#9;c8.1-0.5,16.2-1.8,23.5-5.2c5.2-2.5,11.1-9.9,4-14.1c-1.9-1.1-4.4-1-6.5-1.3C250.2,289.7,246.2,289.6,242.2,289.9z"/>
	<path class="st2_data-collection-84" d="M231.2,311.7c-3.4,0-7.4-0.6-9.5-3.6c-2.4-3.2-1.2-7.7,0.9-10.5c4.6-6.1,13.4-7.7,19.5-8.3&#10;&#9;&#9;c4-0.4,8.1-0.3,12.1,0.4c0.5,0.1,1.1,0.1,1.7,0.2c1.8,0,3.5,0.4,5.1,1.2c3.1,1.9,3.7,4.2,3.6,5.9c-0.2,3.9-4.1,7.8-7.7,9.5&#10;&#9;&#9;c-6.4,3-14.2,4.7-23.7,5.3C232.6,311.7,231.9,311.7,231.2,311.7z M246.6,290.4c-1.5,0-2.9,0.1-4.4,0.2l0,0&#10;&#9;&#9;c-5.9,0.6-14.3,2.1-18.6,7.8c-1.8,2.4-2.8,6.2-0.9,8.9c2.2,3,7,3.1,10.4,2.9c9.4-0.5,17-2.2,23.2-5.1c3.2-1.5,6.7-5,6.9-8.3&#10;&#9;&#9;c0.1-1.8-0.9-3.4-3-4.6c-1.4-0.7-2.9-1-4.5-1c-0.6,0-1.2-0.1-1.8-0.2C251.6,290.6,249.1,290.4,246.6,290.4L246.6,290.4z&#10;&#9;&#9; M242.2,289.9L242.2,289.9z"/>
	<path class="st0_data-collection-84" d="M268.8,341.8c0,0,6.9-42.9,3.9-52c-1-3-6.4,1.5-8.7,10.6c-1.3,4.9-2.2,9.9-2.5,14.9c0,0-11.8,0.5-12.1,13&#10;&#9;&#9;c-0.2,9.7,1.8,12.6,1.8,12.6"/>
	<path class="st2_data-collection-84" d="M268.8,342.5h-0.1c-0.4-0.1-0.6-0.4-0.6-0.8c0.1-0.4,6.8-42.9,3.9-51.7c-0.1-0.5-0.4-0.4-0.5-0.4&#10;&#9;&#9;c-1.4,0-5,3.9-6.9,11c-1.3,4.8-2.1,9.8-2.4,14.8c0,0.4-0.3,0.7-0.7,0.7c-0.5,0-11.1,0.6-11.4,12.3c-0.2,9.2,1.7,12.1,1.7,12.2&#10;&#9;&#9;c0.2,0.3,0.2,0.8-0.2,1c0,0,0,0,0,0c-0.3,0.2-0.7,0.2-1-0.1c0,0,0,0,0,0c-0.1-0.1-2.2-3.2-2-13c0.3-11.3,9.6-13.3,12.1-13.6&#10;&#9;&#9;c0.4-4.9,1.2-9.7,2.5-14.5c1.9-7.3,5.7-12,8.2-12c0.9,0,1.7,0.5,1.9,1.4c3,9.2-3.6,50.6-3.9,52.4&#10;&#9;&#9;C269.4,342.3,269.1,342.5,268.8,342.5z"/>
</g>
<g id="Data_box_data-collection-84">
	<rect x="303.4" y="105.1" class="st1_data-collection-84" width="49.2" height="33.4"/>
	<rect x="142.6" y="112.9" class="st0_data-collection-84" width="51.5" height="36.1"/>
	<path class="st2_data-collection-84" d="M194.1,149.7h-51.5c-0.4,0-0.7-0.3-0.7-0.7v-36.1c0-0.4,0.3-0.7,0.7-0.7h51.5c0.4,0,0.7,0.3,0.7,0.7V149&#10;&#9;&#9;C194.8,149.4,194.5,149.7,194.1,149.7C194.1,149.7,194.1,149.7,194.1,149.7z M143.3,148.3h50.1v-34.7h-50.1V148.3z"/>
	<rect x="124.5" y="169.7" class="st1_data-collection-84" width="54.3" height="36.7"/>
	<rect x="337.1" y="150.9" class="st0_data-collection-84" width="23.6" height="23.6"/>
	<path class="st2_data-collection-84" d="M360.8,175.3h-23.7c-0.4,0-0.7-0.3-0.7-0.7c0,0,0,0,0,0v-23.6c0-0.4,0.3-0.7,0.7-0.7l0,0h23.6&#10;&#9;&#9;c0.4,0,0.7,0.3,0.7,0.7c0,0,0,0,0,0v23.6C361.5,174.9,361.1,175.3,360.8,175.3z M337.8,173.9h22.2v-22.2h-22.2V173.9z"/>
	<rect x="240.4" y="142.8" class="st0_data-collection-84" width="50.4" height="40"/>
	<path class="st2_data-collection-84" d="M290.8,183.4h-50.4c-0.4,0-0.7-0.3-0.7-0.7v-40c0-0.4,0.3-0.7,0.7-0.7h50.4c0.4,0,0.7,0.3,0.7,0.7c0,0,0,0,0,0&#10;&#9;&#9;v40C291.5,183.1,291.2,183.4,290.8,183.4L290.8,183.4z M241.1,182h49v-38.6h-49V182z"/>
	<rect x="186.3" y="119.2" class="st1_data-collection-84" width="22.2" height="16.9"/>
	<rect x="300.6" y="194.5" class="st1_data-collection-84" width="20.6" height="20.6"/>
	<rect x="203.2" y="163.7" class="st0_data-collection-84" width="17.9" height="17.9"/>
	<path class="st1_data-collection-84" d="M221.1,182.3h-17.9c-0.4,0-0.7-0.3-0.7-0.7v-17.9c0-0.4,0.3-0.7,0.7-0.7h17.9c0.4,0,0.7,0.3,0.7,0.7v17.9&#10;&#9;&#9;C221.8,182,221.4,182.3,221.1,182.3z M203.9,180.9h16.5v-16.5h-16.5V180.9z"/>
	<rect x="270.4" y="121.8" class="st0_data-collection-84" width="15.7" height="11.8"/>
	<path class="st1_data-collection-84" d="M286.1,134.3h-15.7c-0.4,0-0.7-0.3-0.7-0.7c0,0,0,0,0,0v-11.8c0-0.4,0.3-0.7,0.7-0.7l0,0h15.7&#10;&#9;&#9;c0.4,0,0.7,0.3,0.7,0.7v11.8C286.8,134,286.5,134.3,286.1,134.3L286.1,134.3z M271.1,132.9h14.3v-10.4H271L271.1,132.9z"/>
	<rect x="265.9" y="200.4" class="st0_data-collection-84" width="9" height="9"/>
	<path class="st2_data-collection-84" d="M274.8,210h-9c-0.4,0-0.7-0.3-0.7-0.7c0,0,0,0,0,0v-9c0-0.4,0.3-0.7,0.7-0.7l0,0h9c0.4,0,0.7,0.3,0.7,0.7&#10;&#9;&#9;c0,0,0,0,0,0v9C275.5,209.7,275.2,210,274.8,210z M266.6,208.6h7.6V201h-7.6V208.6z"/>
	<rect x="206" y="204.9" class="st1_data-collection-84" width="22.5" height="10.3"/>
	<rect x="186.3" y="198.9" class="st0_data-collection-84" width="7.4" height="7.4"/>
	<path class="st1_data-collection-84" d="M193.8,207h-7.4c-0.4,0-0.7-0.3-0.7-0.7v-7.4c0-0.4,0.3-0.7,0.7-0.7h7.4c0.4,0,0.7,0.3,0.7,0.7v7.4&#10;&#9;&#9;C194.4,206.7,194.1,207,193.8,207z M187,205.6h6v-6h-6V205.6z"/>
	<rect x="240.4" y="102.4" class="st1_data-collection-84" width="15.4" height="15.4"/>
	<rect x="311" y="169.7" class="st0_data-collection-84" width="13.7" height="10.7"/>
	<path class="st1_data-collection-84" d="M324.6,181H311c-0.4,0-0.7-0.3-0.7-0.7c0,0,0,0,0,0v-10.6c0-0.4,0.3-0.7,0.7-0.7l0,0h13.7&#10;&#9;&#9;c0.4,0,0.7,0.3,0.7,0.7c0,0,0,0,0,0v10.7C325.4,180.7,325,181,324.6,181C324.7,181,324.7,181,324.6,181z M311.6,179.6H324v-9.3&#10;&#9;&#9;h-12.3L311.6,179.6z"/>
</g>
</svg>